<svg width="18" height="18" viewBox="0 0 18 18" fill="none" xmlns="http://www.w3.org/2000/svg">
<path d="M12.7468 6.87749C12.6063 6.7378 12.4162 6.65939 12.2181 6.65939C12.02 6.65939 11.8299 6.7378 11.6893 6.87749L8.99685 9.53249L6.34185 6.87749C6.20133 6.7378 6.01124 6.65939 5.8131 6.65939C5.61496 6.65939 5.42487 6.7378 5.28435 6.87749C5.21405 6.94721 5.15826 7.03016 5.12018 7.12156C5.0821 7.21295 5.0625 7.31098 5.0625 7.40999C5.0625 7.509 5.0821 7.60703 5.12018 7.69842C5.15826 7.78981 5.21405 7.87277 5.28435 7.94249L8.46435 11.1225C8.53407 11.1928 8.61702 11.2486 8.70842 11.2867C8.79981 11.3247 8.89784 11.3443 8.99685 11.3443C9.09586 11.3443 9.19389 11.3247 9.28528 11.2867C9.37668 11.2486 9.45963 11.1928 9.52935 11.1225L12.7468 7.94249C12.8171 7.87277 12.8729 7.78981 12.911 7.69842C12.9491 7.60703 12.9687 7.509 12.9687 7.40999C12.9687 7.31098 12.9491 7.21295 12.911 7.12156C12.8729 7.03016 12.8171 6.94721 12.7468 6.87749Z" fill="white" style="fill:white;fill-opacity:1;"/>
</svg>
