<svg width="20" height="20" viewBox="0 0 20 20" fill="none" xmlns="http://www.w3.org/2000/svg">
<path fill-rule="evenodd" clip-rule="evenodd" d="M9.60211 0C7.39297 0 5.60211 1.79086 5.60211 4H4.25044C2.73747 4 1.46127 5.12661 1.27361 6.6279L0.0236084 16.6279C-0.200212 18.4185 1.19595 20 3.00044 20H16.2037C18.0082 20 19.4044 18.4185 19.1806 16.6279L17.9306 6.6279C17.7429 5.12661 16.4667 4 14.9537 4H13.6021C13.6021 1.79086 11.8113 0 9.60211 0ZM11.6021 6V7C11.6021 7.55228 12.0498 8 12.6021 8C13.1544 8 13.6021 7.55228 13.6021 7V6H14.9537C15.4581 6 15.8835 6.37554 15.946 6.87597L17.196 16.876C17.2706 17.4728 16.8052 18 16.2037 18H3.00044C2.39894 18 1.93356 17.4728 2.00816 16.876L3.25816 6.87597C3.32072 6.37554 3.74612 6 4.25044 6H5.60211V7C5.60211 7.55228 6.04983 8 6.60211 8C7.1544 8 7.60211 7.55228 7.60211 7V6H11.6021ZM11.6021 4C11.6021 2.89543 10.7067 2 9.60211 2C8.49754 2 7.60211 2.89543 7.60211 4H11.6021Z" fill="white" style="fill:white;fill-opacity:1;"/>
</svg>
