<svg width="48" height="48" viewBox="0 0 48 48" fill="none" xmlns="http://www.w3.org/2000/svg">
<path d="M35.8438 13.24C35.6408 12.7513 35.2525 12.3629 34.7638 12.16C34.5233 12.0575 34.2651 12.0032 34.0038 12H14.0038C13.4734 12 12.9646 12.2107 12.5896 12.5858C12.2145 12.9609 12.0038 13.4696 12.0038 14C12.0038 14.5304 12.2145 15.0391 12.5896 15.4142C12.9646 15.7893 13.4734 16 14.0038 16H29.1838L12.5838 32.58C12.3963 32.7659 12.2475 32.9871 12.146 33.2308C12.0445 33.4746 11.9922 33.736 11.9922 34C11.9922 34.264 12.0445 34.5254 12.146 34.7692C12.2475 35.0129 12.3963 35.2341 12.5838 35.42C12.7697 35.6075 12.9909 35.7562 13.2346 35.8578C13.4783 35.9593 13.7398 36.0116 14.0038 36.0116C14.2678 36.0116 14.5292 35.9593 14.7729 35.8578C15.0167 35.7562 15.2379 35.6075 15.4238 35.42L32.0038 18.82V34C32.0038 34.5304 32.2145 35.0391 32.5896 35.4142C32.9646 35.7893 33.4734 36 34.0038 36C34.5342 36 35.0429 35.7893 35.418 35.4142C35.7931 35.0391 36.0038 34.5304 36.0038 34V14C36.0006 13.7386 35.9463 13.4804 35.8438 13.24Z" fill="white" style="fill:white;fill-opacity:1;"/>
</svg>
