<svg width="12" height="10" viewBox="0 0 12 10" fill="none" xmlns="http://www.w3.org/2000/svg">
<path d="M6.25122 0.625C6.25122 0.279822 5.9714 0 5.62622 0C5.28104 0 5.00122 0.279822 5.00122 0.625V5.67893L3.25561 3.93332C3.01153 3.68924 2.6158 3.68924 2.37172 3.93332C2.12764 4.17739 2.12764 4.57312 2.37172 4.8172L4.74231 7.18779C5.23046 7.67594 6.02192 7.67594 6.51007 7.18779L8.87944 4.81842C9.12352 4.57434 9.12352 4.17861 8.87944 3.93454C8.63536 3.69046 8.23964 3.69046 7.99556 3.93454L6.25122 5.67887V0.625Z" fill="#1E1E1E" style="fill:#1E1E1E;fill:color(display-p3 0.1176 0.1176 0.1176);fill-opacity:1;"/>
<path fill-rule="evenodd" clip-rule="evenodd" d="M0.625 6.25026C0.970178 6.25026 1.25 6.53008 1.25 6.87526V8.12526C1.25 8.47044 1.52982 8.75026 1.875 8.75026H9.375C9.72018 8.75026 10 8.47044 10 8.12526V6.87526C10 6.53008 10.2798 6.25026 10.625 6.25026C10.9702 6.25026 11.25 6.53008 11.25 6.87526V8.12526C11.25 9.16079 10.4105 10.0003 9.375 10.0003H1.875C0.839466 10.0003 0 9.16079 0 8.12526V6.87526C0 6.53008 0.279822 6.25026 0.625 6.25026Z" fill="#1E1E1E" style="fill:#1E1E1E;fill:color(display-p3 0.1176 0.1176 0.1176);fill-opacity:1;"/>
</svg>
