<svg width="24" height="24" viewBox="0 0 24 24" fill="none" xmlns="http://www.w3.org/2000/svg">
<g opacity="0.5">
<path fill-rule="evenodd" clip-rule="evenodd" d="M11.9962 17C16.1082 17 18.5827 13.933 19.6792 12.1047C19.7042 12.063 19.7111 12.0278 19.7111 12C19.7111 11.9722 19.7042 11.937 19.6792 11.8953C18.5827 10.067 16.1082 7 11.9962 7C7.88411 7 5.40959 10.067 4.31316 11.8953C4.28811 11.937 4.28125 11.9722 4.28125 12C4.28125 12.0278 4.28811 12.063 4.31316 12.1047C5.40958 13.933 7.88411 17 11.9962 17ZM21.3944 13.1334C20.2061 15.1148 17.2112 19 11.9962 19C6.78114 19 3.78623 15.1148 2.59795 13.1334C2.17568 12.4292 2.17568 11.5708 2.59795 10.8666C3.78623 8.88521 6.78114 5 11.9962 5C17.2112 5 20.2061 8.88521 21.3944 10.8666C21.8166 11.5708 21.8166 12.4292 21.3944 13.1334Z" fill="black" style="fill:black;fill-opacity:1;"/>
<path fill-rule="evenodd" clip-rule="evenodd" d="M11.9962 13C12.5484 13 12.9962 12.5523 12.9962 12C12.9962 11.4477 12.5484 11 11.9962 11C11.4439 11 10.9962 11.4477 10.9962 12C10.9962 12.5523 11.4439 13 11.9962 13ZM11.9962 15C13.653 15 14.9962 13.6569 14.9962 12C14.9962 10.3431 13.653 9 11.9962 9C10.3393 9 8.99616 10.3431 8.99616 12C8.99616 13.6569 10.3393 15 11.9962 15Z" fill="black" style="fill:black;fill-opacity:1;"/>
</g>
</svg>
