<svg width="14" height="14" viewBox="0 0 14 14" fill="none" xmlns="http://www.w3.org/2000/svg">
<g clip-path="url(#clip0_633_1658)">
<path d="M8.53125 0.4375H0.21875C0.0979377 0.4375 0 0.535438 0 0.65625V8.96875C0 9.08956 0.0979377 9.1875 0.21875 9.1875H8.53125C8.65206 9.1875 8.75 9.08956 8.75 8.96875V0.65625C8.75 0.535438 8.65206 0.4375 8.53125 0.4375Z" fill="#BEBEBE" fill-opacity="0.3" style="fill:#BEBEBE;fill:color(display-p3 0.7451 0.7451 0.7451);fill-opacity:0.3;"/>
<path d="M19.0312 0.4375H10.7187C10.5979 0.4375 10.5 0.535438 10.5 0.65625V8.96875C10.5 9.08956 10.5979 9.1875 10.7187 9.1875H19.0312C19.1521 9.1875 19.25 9.08956 19.25 8.96875V0.65625C19.25 0.535438 19.1521 0.4375 19.0312 0.4375Z" fill="#BEBEBE" fill-opacity="0.3" style="fill:#BEBEBE;fill:color(display-p3 0.7451 0.7451 0.7451);fill-opacity:0.3;"/>
<path d="M3.45441 12.9369C3.45441 12.9369 1.65628 9.73437 0.899408 8.3475C-0.106841 6.50125 -0.273096 5.7225 0.422533 5.3375C0.855658 5.09687 1.45503 5.1975 1.82253 5.83625L2.68003 7.20125V1.85062C2.68003 1.85062 2.62753 0.4375 3.63378 0.4375C4.70566 0.4375 4.61379 1.85062 4.61379 1.85062V4.44937C4.61379 4.44937 5.17816 4.0425 5.83879 4.22625C6.17566 4.31812 6.56941 4.48 6.77941 5.01375C6.77941 5.01375 8.12254 4.36187 8.79191 5.74875C8.79191 5.74875 10.3407 5.4425 10.3407 7.04812C10.3407 8.65375 8.40691 12.9369 8.40691 12.9369H3.45441Z" fill="#BEBEBE" style="fill:#BEBEBE;fill:color(display-p3 0.7451 0.7451 0.7451);fill-opacity:1;"/>
</g>
<defs>
<clipPath id="clip0_633_1658">
<rect width="14" height="14" fill="white" style="fill:white;fill-opacity:1;"/>
</clipPath>
</defs>
</svg>
