<svg width="115" height="17" viewBox="0 0 115 17" fill="none" xmlns="http://www.w3.org/2000/svg">
<path d="M8.5905 0.863986C7.4065 0.863986 6.3745 1.07999 5.4945 1.51199C4.6305 1.92799 3.9105 2.47999 3.3345 3.16799C2.7585 3.83999 2.3265 4.59999 2.0385 5.44799C1.7665 6.29599 1.6305 7.13599 1.6305 7.96799C1.6305 8.91199 1.8145 9.83999 2.1825 10.752C2.5505 11.648 3.0545 12.448 3.6945 13.152C4.3505 13.84 5.1105 14.4 5.9745 14.832C6.8385 15.248 7.7745 15.456 8.7825 15.456C9.0705 15.456 9.4065 15.424 9.7905 15.36C10.1905 15.296 10.5825 15.176 10.9665 15C11.3505 14.808 11.7025 14.544 12.0225 14.208C12.3585 13.872 12.6145 13.432 12.7905 12.888H13.0305V15.552C12.7905 15.552 12.5345 15.584 12.2625 15.648C12.0065 15.712 11.7185 15.784 11.3985 15.864C10.9825 15.976 10.5185 16.08 10.0065 16.176C9.5105 16.272 8.9825 16.32 8.4225 16.32C7.0305 16.32 5.8065 16.08 4.7505 15.6C3.6945 15.12 2.8145 14.496 2.1105 13.728C1.4065 12.96 0.8785 12.096 0.5265 11.136C0.1745 10.16 -0.00149998 9.17599 -0.00149998 8.18399C-0.00149998 7.19199 0.1745 6.20799 0.5265 5.23199C0.8785 4.25599 1.4145 3.38399 2.1345 2.61599C2.8545 1.83199 3.7585 1.19999 4.8465 0.719985C5.9345 0.239986 7.2145 -1.38283e-05 8.6865 -1.38283e-05C9.2145 -1.38283e-05 9.6865 0.047986 10.1025 0.143986C10.5345 0.239985 10.9185 0.335986 11.2545 0.431986C11.4945 0.511986 11.7105 0.575986 11.9025 0.623985C12.1105 0.655986 12.3105 0.671986 12.5025 0.671986V3.33599H12.2625C12.1665 2.83999 11.9905 2.43199 11.7345 2.11199C11.4785 1.77599 11.1745 1.51999 10.8225 1.34399C10.4865 1.16799 10.1185 1.04799 9.7185 0.983986C9.3345 0.903986 8.9585 0.863986 8.5905 0.863986ZM20.9516 16.08V14.856L20.8316 14.976C20.4316 15.376 19.9676 15.688 19.4396 15.912C18.9276 16.136 18.3036 16.248 17.5676 16.248C17.0076 16.248 16.5276 16.184 16.1276 16.056C15.7276 15.928 15.3996 15.752 15.1436 15.528C14.8876 15.288 14.6956 15.016 14.5676 14.712C14.4556 14.408 14.3996 14.088 14.3996 13.752C14.3996 13.208 14.5436 12.728 14.8316 12.312C15.1356 11.896 15.5676 11.528 16.1276 11.208C16.6876 10.888 17.3676 10.6 18.1676 10.344C18.9836 10.072 19.9116 9.80799 20.9516 9.55199C20.9196 8.92799 20.7916 8.42399 20.5676 8.03999C20.3436 7.65599 20.0796 7.35999 19.7756 7.15199C19.4716 6.92799 19.1516 6.78399 18.8156 6.71999C18.4796 6.63999 18.1916 6.59999 17.9516 6.59999C17.5356 6.59999 17.1676 6.66399 16.8476 6.79199C16.5436 6.91999 16.2716 7.08799 16.0316 7.29599C15.8076 7.48799 15.6156 7.70399 15.4556 7.94399C15.2956 8.16799 15.1676 8.38399 15.0716 8.59199H14.8556V6.83999C14.9836 6.82399 15.1036 6.78399 15.2156 6.71999C15.3276 6.65599 15.4636 6.59199 15.6236 6.52799C15.8636 6.43199 16.1916 6.29599 16.6076 6.11999C17.0236 5.92799 17.6076 5.83199 18.3596 5.83199C19.2396 5.83199 19.9516 5.94399 20.4956 6.16799C21.0396 6.39199 21.4556 6.68799 21.7436 7.05599C22.0476 7.42399 22.2476 7.84799 22.3436 8.32799C22.4396 8.79199 22.4876 9.27199 22.4876 9.76799V14.52C22.4876 14.84 22.5596 15.144 22.7036 15.432C22.8476 15.704 23.0396 15.84 23.2796 15.84V16.08H20.9516ZM20.9516 13.8V10.368L20.7116 10.416C20.3276 10.512 19.8556 10.64 19.2956 10.8C18.7516 10.96 18.2316 11.168 17.7356 11.424C17.2396 11.68 16.8156 11.984 16.4636 12.336C16.1116 12.688 15.9356 13.096 15.9356 13.56C15.9356 14.072 16.1436 14.496 16.5596 14.832C16.9756 15.168 17.5196 15.336 18.1916 15.336C18.7196 15.336 19.1836 15.224 19.5836 15C19.9836 14.76 20.3516 14.456 20.6876 14.088L20.9516 13.8ZM26.4244 11.232C26.4884 11.792 26.6244 12.328 26.8324 12.84C27.0404 13.336 27.3124 13.776 27.6484 14.16C28.0004 14.544 28.4244 14.856 28.9204 15.096C29.4164 15.32 29.9924 15.432 30.6484 15.432C31.0004 15.432 31.3684 15.384 31.7524 15.288C32.1524 15.176 32.5204 15.024 32.8564 14.832C33.1924 14.64 33.4884 14.408 33.7444 14.136C34.0164 13.848 34.2004 13.528 34.2964 13.176H34.5124V14.976C34.4164 14.976 34.3044 15.008 34.1764 15.072C34.0644 15.136 33.9284 15.216 33.7684 15.312C33.4484 15.504 33.0164 15.712 32.4724 15.936C31.9284 16.144 31.2084 16.248 30.3124 16.248C29.5924 16.248 28.9044 16.144 28.2484 15.936C27.6084 15.728 27.0404 15.408 26.5444 14.976C26.0484 14.544 25.6484 13.992 25.3444 13.32C25.0564 12.648 24.9124 11.848 24.9124 10.92C24.9124 10.328 25.0084 9.72799 25.2004 9.11999C25.4084 8.51199 25.7124 7.96799 26.1124 7.48799C26.5284 6.99199 27.0564 6.59199 27.6964 6.28799C28.3364 5.98399 29.1044 5.83199 30.0004 5.83199C30.8004 5.83199 31.4964 5.96799 32.0884 6.23999C32.6964 6.51199 33.1924 6.88799 33.5764 7.36799C33.9764 7.84799 34.2724 8.41599 34.4644 9.07199C34.6564 9.72799 34.7524 10.448 34.7524 11.232H26.4244ZM29.9044 6.62399C29.3444 6.62399 28.8564 6.73599 28.4404 6.95999C28.0404 7.18399 27.6964 7.47199 27.4084 7.82399C27.1204 8.17599 26.8964 8.57599 26.7364 9.02399C26.5764 9.47199 26.4724 9.91999 26.4244 10.368H33.2644C33.2484 9.90399 33.1604 9.44799 33.0004 8.99999C32.8564 8.55199 32.6484 8.15199 32.3764 7.79999C32.1044 7.44799 31.7604 7.16799 31.3444 6.95999C30.9284 6.73599 30.4484 6.62399 29.9044 6.62399ZM43.3697 13.344C43.3697 13.76 43.2657 14.144 43.0577 14.496C42.8497 14.848 42.5617 15.16 42.1937 15.432C41.8417 15.688 41.4257 15.896 40.9457 16.056C40.4657 16.2 39.9457 16.272 39.3857 16.272C38.6977 16.272 38.1377 16.184 37.7057 16.008C37.2737 15.816 36.9057 15.624 36.6017 15.432C36.3937 15.304 36.2017 15.2 36.0257 15.12C35.8497 15.024 35.6577 14.976 35.4497 14.976V13.152H35.6897C35.7377 13.376 35.8737 13.624 36.0977 13.896C36.3377 14.152 36.6177 14.392 36.9377 14.616C37.2737 14.84 37.6337 15.032 38.0177 15.192C38.4177 15.336 38.8177 15.408 39.2177 15.408C39.5057 15.408 39.8017 15.376 40.1057 15.312C40.4097 15.248 40.6817 15.144 40.9217 15C41.1777 14.856 41.3857 14.68 41.5457 14.472C41.7217 14.248 41.8097 13.984 41.8097 13.68C41.8097 13.376 41.7217 13.112 41.5457 12.888C41.3697 12.664 41.1457 12.472 40.8737 12.312C40.6017 12.136 40.2897 11.984 39.9377 11.856C39.5857 11.728 39.2337 11.608 38.8817 11.496C38.4657 11.368 38.0417 11.224 37.6097 11.064C37.1937 10.904 36.8177 10.72 36.4817 10.512C36.1457 10.288 35.8737 10.024 35.6657 9.71999C35.4577 9.39999 35.3537 9.02399 35.3537 8.59199C35.3537 8.22399 35.4177 7.87199 35.5457 7.53599C35.6897 7.19999 35.9137 6.91199 36.2177 6.67199C36.5377 6.41599 36.9457 6.21599 37.4417 6.07199C37.9377 5.91199 38.5377 5.83199 39.2417 5.83199C39.8657 5.83199 40.3457 5.88799 40.6817 5.99999C41.0337 6.09599 41.3217 6.19999 41.5457 6.31199C41.6897 6.39199 41.8337 6.45599 41.9777 6.50399C42.1217 6.53599 42.2817 6.55199 42.4577 6.55199V8.23199H42.2657C41.9777 7.70399 41.5377 7.30399 40.9457 7.03199C40.3537 6.75999 39.7457 6.62399 39.1217 6.62399C38.7217 6.62399 38.3777 6.67999 38.0897 6.79199C37.8017 6.88799 37.5617 7.01599 37.3697 7.17599C37.1937 7.31999 37.0577 7.48799 36.9617 7.67999C36.8817 7.87199 36.8417 8.06399 36.8417 8.25599C36.8417 8.52799 36.9137 8.75999 37.0577 8.95199C37.2177 9.14399 37.4257 9.31199 37.6817 9.45599C37.9537 9.59999 38.2497 9.73599 38.5697 9.86399C38.9057 9.99199 39.2577 10.112 39.6257 10.224C40.0737 10.368 40.5217 10.528 40.9697 10.704C41.4177 10.864 41.8177 11.064 42.1697 11.304C42.5217 11.544 42.8097 11.832 43.0337 12.168C43.2577 12.488 43.3697 12.88 43.3697 13.344ZM51.2929 16.08V14.856L51.1729 14.976C50.7729 15.376 50.3089 15.688 49.7809 15.912C49.2689 16.136 48.6449 16.248 47.9089 16.248C47.3489 16.248 46.8689 16.184 46.4689 16.056C46.0689 15.928 45.7409 15.752 45.4849 15.528C45.2289 15.288 45.0369 15.016 44.9089 14.712C44.7969 14.408 44.7409 14.088 44.7409 13.752C44.7409 13.208 44.8849 12.728 45.1729 12.312C45.4769 11.896 45.9089 11.528 46.4689 11.208C47.0289 10.888 47.7089 10.6 48.5089 10.344C49.3249 10.072 50.2529 9.80799 51.2929 9.55199C51.2609 8.92799 51.1329 8.42399 50.9089 8.03999C50.6849 7.65599 50.4209 7.35999 50.1169 7.15199C49.8129 6.92799 49.4929 6.78399 49.1569 6.71999C48.8209 6.63999 48.5329 6.59999 48.2929 6.59999C47.8769 6.59999 47.5089 6.66399 47.1889 6.79199C46.8849 6.91999 46.6129 7.08799 46.3729 7.29599C46.1489 7.48799 45.9569 7.70399 45.7969 7.94399C45.6369 8.16799 45.5089 8.38399 45.4129 8.59199H45.1969V6.83999C45.3249 6.82399 45.4449 6.78399 45.5569 6.71999C45.6689 6.65599 45.8049 6.59199 45.9649 6.52799C46.2049 6.43199 46.5329 6.29599 46.9489 6.11999C47.3649 5.92799 47.9489 5.83199 48.7009 5.83199C49.5809 5.83199 50.2929 5.94399 50.8369 6.16799C51.3809 6.39199 51.7969 6.68799 52.0849 7.05599C52.3889 7.42399 52.5889 7.84799 52.6849 8.32799C52.7809 8.79199 52.8289 9.27199 52.8289 9.76799V14.52C52.8289 14.84 52.9009 15.144 53.0449 15.432C53.1889 15.704 53.3809 15.84 53.6209 15.84V16.08H51.2929ZM51.2929 13.8V10.368L51.0529 10.416C50.6689 10.512 50.1969 10.64 49.6369 10.8C49.0929 10.96 48.5729 11.168 48.0769 11.424C47.5809 11.68 47.1569 11.984 46.8049 12.336C46.4529 12.688 46.2769 13.096 46.2769 13.56C46.2769 14.072 46.4849 14.496 46.9009 14.832C47.3169 15.168 47.8609 15.336 48.5329 15.336C49.0609 15.336 49.5249 15.224 49.9249 15C50.3249 14.76 50.6929 14.456 51.0289 14.088L51.2929 13.8ZM61.3016 7.75199C61.1096 7.43199 60.9096 7.23199 60.7016 7.15199C60.4936 7.07199 60.2536 7.03199 59.9816 7.03199C59.8056 7.03199 59.6136 7.07199 59.4056 7.15199C59.2136 7.23199 59.0216 7.33599 58.8296 7.46399C58.6376 7.59199 58.4456 7.73599 58.2536 7.89599C58.0776 8.03999 57.9256 8.17599 57.7976 8.30399V14.544C57.7976 14.672 57.8136 14.808 57.8456 14.952C57.8776 15.096 57.9256 15.24 57.9896 15.384C58.0696 15.512 58.1496 15.624 58.2296 15.72C58.3256 15.8 58.4376 15.84 58.5656 15.84V16.08H55.4456V15.84C55.5576 15.84 55.6616 15.8 55.7576 15.72C55.8536 15.624 55.9336 15.512 55.9976 15.384C56.0776 15.24 56.1336 15.096 56.1656 14.952C56.1976 14.808 56.2136 14.672 56.2136 14.544V7.84799C56.2136 7.62399 56.1416 7.39999 55.9976 7.17599C55.8536 6.95199 55.6456 6.80799 55.3736 6.74399V6.55199L57.7976 5.83199V7.27199C57.9416 7.09599 58.0936 6.92799 58.2536 6.76799C58.4136 6.59199 58.5896 6.43999 58.7816 6.31199C58.9896 6.16799 59.2136 6.05599 59.4536 5.97599C59.6936 5.87999 59.9736 5.83199 60.2936 5.83199C60.5176 5.83199 60.8056 5.87999 61.1576 5.97599C61.5096 6.07199 61.7976 6.17599 62.0216 6.28799L61.3016 7.75199ZM72.7716 11.832C72.7716 12.632 72.6116 13.32 72.2916 13.896C71.9716 14.456 71.5556 14.912 71.0436 15.264C70.5476 15.616 69.9796 15.872 69.3396 16.032C68.7156 16.192 68.0916 16.272 67.4676 16.272C66.8276 16.272 66.2756 16.208 65.8116 16.08C65.3476 15.952 64.9236 15.832 64.5396 15.72C64.2836 15.64 64.0516 15.576 63.8436 15.528C63.6356 15.464 63.4276 15.432 63.2196 15.432V12.696H63.4596C63.4596 13.304 63.6116 13.792 63.9156 14.16C64.2356 14.512 64.6036 14.784 65.0196 14.976C65.4356 15.168 65.8516 15.296 66.2676 15.36C66.6836 15.408 66.9876 15.432 67.1796 15.432C67.8676 15.432 68.4596 15.336 68.9556 15.144C69.4516 14.936 69.8596 14.672 70.1796 14.352C70.4996 14.016 70.7316 13.648 70.8756 13.248C71.0356 12.848 71.1156 12.44 71.1156 12.024C71.1156 11.496 71.0036 11.056 70.7796 10.704C70.5556 10.336 70.2596 10.016 69.8916 9.74399C69.5396 9.47199 69.1316 9.23999 68.6676 9.04799C68.2036 8.85599 67.7316 8.66399 67.2516 8.47199C66.7076 8.26399 66.1716 8.04799 65.6436 7.82399C65.1156 7.59999 64.6436 7.32799 64.2276 7.00799C63.8116 6.67199 63.4756 6.27999 63.2196 5.83199C62.9636 5.36799 62.8356 4.79999 62.8356 4.12799C62.8356 3.42399 62.9716 2.81599 63.2436 2.30399C63.5156 1.77599 63.8756 1.34399 64.3236 1.00799C64.7876 0.671986 65.3076 0.423985 65.8836 0.263986C66.4756 0.087986 67.0756 -1.38283e-05 67.6836 -1.38283e-05C68.0996 -1.38283e-05 68.4916 0.0319862 68.8596 0.0959864C69.2276 0.143986 69.5796 0.207985 69.9156 0.287985C70.1876 0.351985 70.4516 0.407986 70.7076 0.455986C70.9636 0.487986 71.2116 0.503985 71.4516 0.503985V2.97599H71.2116C71.1796 2.14399 70.8516 1.58399 70.2276 1.29599C69.6036 0.991985 68.7396 0.839985 67.6356 0.839985C66.9956 0.839985 66.4676 0.951985 66.0516 1.17599C65.6516 1.38399 65.3316 1.64799 65.0916 1.96799C64.8516 2.27199 64.6836 2.60799 64.5876 2.97599C64.5076 3.32799 64.4676 3.63999 64.4676 3.91199C64.4676 4.35999 64.5636 4.74399 64.7556 5.06399C64.9636 5.38399 65.2356 5.66399 65.5716 5.90399C65.9076 6.14399 66.2916 6.35999 66.7236 6.55199C67.1716 6.74399 67.6356 6.92799 68.1156 7.10399C68.6596 7.31199 69.2116 7.53599 69.7716 7.77599C70.3316 8.01599 70.8276 8.31199 71.2596 8.66399C71.7076 9.01599 72.0676 9.44799 72.3396 9.95999C72.6276 10.472 72.7716 11.096 72.7716 11.832ZM76.6892 6.81599V12.6C76.6892 13.016 76.6972 13.392 76.7132 13.728C76.7292 14.064 76.7692 14.344 76.8332 14.568C76.8972 14.792 76.9932 14.968 77.1212 15.096C77.2492 15.208 77.4252 15.264 77.6492 15.264C77.9852 15.264 78.2972 15.104 78.5852 14.784C78.8892 14.464 79.0812 14.08 79.1612 13.632H79.3772V15.384C79.2332 15.384 79.1132 15.432 79.0172 15.528C78.8892 15.64 78.7052 15.76 78.4652 15.888C78.2412 16.016 77.8972 16.08 77.4332 16.08C76.8572 16.08 76.4092 15.968 76.0892 15.744C75.7692 15.52 75.5372 15.224 75.3932 14.856C75.2492 14.488 75.1612 14.08 75.1292 13.632C75.1132 13.184 75.1052 12.728 75.1052 12.264V6.81599H73.7612V5.99999H75.1052V3.86399C75.1052 3.59199 75.0652 3.34399 74.9852 3.11999C74.9212 2.87999 74.6892 2.75199 74.2892 2.73599V2.49599L76.6892 1.72799V5.99999H79.3772V6.81599H76.6892ZM85.7409 16.248C84.9409 16.248 84.2209 16.12 83.5809 15.864C82.9409 15.592 82.3889 15.232 81.9249 14.784C81.4769 14.32 81.1249 13.776 80.8689 13.152C80.6289 12.528 80.5089 11.848 80.5089 11.112C80.5089 10.328 80.6449 9.61599 80.9169 8.97599C81.1889 8.31999 81.5649 7.75999 82.0449 7.29599C82.5249 6.83199 83.0929 6.47199 83.7489 6.21599C84.4049 5.95999 85.1169 5.83199 85.8849 5.83199C86.6529 5.83199 87.3569 5.95999 87.9969 6.21599C88.6369 6.45599 89.1889 6.79999 89.6529 7.24799C90.1169 7.69599 90.4769 8.23199 90.7329 8.85599C90.9889 9.46399 91.1169 10.136 91.1169 10.872C91.1169 11.56 90.9969 12.232 90.7569 12.888C90.5329 13.528 90.1889 14.096 89.7249 14.592C89.2769 15.088 88.7169 15.488 88.0449 15.792C87.3889 16.096 86.6209 16.248 85.7409 16.248ZM85.5969 6.62399C85.0209 6.65599 84.5089 6.79999 84.0609 7.05599C83.6289 7.29599 83.2609 7.61599 82.9569 8.01599C82.6689 8.39999 82.4449 8.83999 82.2849 9.33599C82.1409 9.83199 82.0689 10.336 82.0689 10.848C82.0689 11.44 82.1569 12.016 82.3329 12.576C82.5249 13.12 82.7889 13.608 83.1249 14.04C83.4769 14.472 83.8929 14.816 84.3729 15.072C84.8529 15.328 85.3889 15.456 85.9809 15.456C86.5729 15.456 87.0929 15.328 87.5409 15.072C88.0049 14.816 88.3889 14.488 88.6929 14.088C88.9969 13.672 89.2209 13.208 89.3649 12.696C89.5249 12.184 89.6049 11.672 89.6049 11.16C89.6049 10.632 89.5249 10.104 89.3649 9.57599C89.2049 9.03199 88.9569 8.54399 88.6209 8.11199C88.2849 7.66399 87.8609 7.30399 87.3489 7.03199C86.8529 6.75999 86.2689 6.62399 85.5969 6.62399ZM102.431 14.52C102.431 14.648 102.447 14.792 102.479 14.952C102.511 15.096 102.559 15.232 102.623 15.36C102.703 15.488 102.783 15.6 102.863 15.696C102.959 15.792 103.071 15.84 103.199 15.84V16.08H100.103V15.84C100.215 15.84 100.319 15.792 100.415 15.696C100.511 15.6 100.591 15.488 100.655 15.36C100.735 15.232 100.791 15.096 100.823 14.952C100.855 14.792 100.871 14.648 100.871 14.52V10.056C100.871 9.47999 100.791 8.97599 100.631 8.54399C100.471 8.11199 100.255 7.75199 99.9834 7.46399C99.7114 7.17599 99.3994 6.96799 99.0474 6.83999C98.7114 6.69599 98.3674 6.62399 98.0154 6.62399C97.6634 6.62399 97.3114 6.69599 96.9594 6.83999C96.6234 6.98399 96.3194 7.17599 96.0474 7.41599C95.7914 7.63999 95.5754 7.91199 95.3994 8.23199C95.2394 8.53599 95.1594 8.85599 95.1594 9.19199V14.52C95.1594 14.648 95.1754 14.792 95.2074 14.952C95.2394 15.096 95.2874 15.232 95.3514 15.36C95.4314 15.488 95.5114 15.6 95.5914 15.696C95.6874 15.792 95.7994 15.84 95.9274 15.84V16.08H92.8074V15.84C92.9194 15.84 93.0234 15.792 93.1194 15.696C93.2154 15.6 93.2954 15.488 93.3594 15.36C93.4394 15.232 93.4954 15.096 93.5274 14.952C93.5594 14.792 93.5754 14.648 93.5754 14.52V7.89599C93.5754 7.62399 93.5354 7.36799 93.4554 7.12799C93.3754 6.87199 93.1434 6.73599 92.7594 6.71999V6.50399L95.1594 5.73599V7.05599C95.2714 6.92799 95.4154 6.79199 95.5914 6.64799C95.7674 6.48799 95.9754 6.34399 96.2154 6.21599C96.4714 6.07199 96.7594 5.95999 97.0794 5.87999C97.4154 5.78399 97.8074 5.73599 98.2554 5.73599C99.0074 5.73599 99.6474 5.86399 100.175 6.11999C100.703 6.37599 101.135 6.71199 101.471 7.12799C101.807 7.52799 102.047 7.97599 102.191 8.47199C102.351 8.95199 102.431 9.42399 102.431 9.88799V14.52ZM106.397 11.232C106.461 11.792 106.597 12.328 106.805 12.84C107.013 13.336 107.285 13.776 107.621 14.16C107.973 14.544 108.397 14.856 108.893 15.096C109.389 15.32 109.965 15.432 110.621 15.432C110.973 15.432 111.341 15.384 111.725 15.288C112.125 15.176 112.493 15.024 112.829 14.832C113.165 14.64 113.461 14.408 113.717 14.136C113.989 13.848 114.173 13.528 114.269 13.176H114.485V14.976C114.389 14.976 114.277 15.008 114.149 15.072C114.037 15.136 113.901 15.216 113.741 15.312C113.421 15.504 112.989 15.712 112.445 15.936C111.901 16.144 111.181 16.248 110.285 16.248C109.565 16.248 108.877 16.144 108.221 15.936C107.581 15.728 107.013 15.408 106.517 14.976C106.021 14.544 105.621 13.992 105.317 13.32C105.029 12.648 104.885 11.848 104.885 10.92C104.885 10.328 104.981 9.72799 105.173 9.11999C105.381 8.51199 105.685 7.96799 106.085 7.48799C106.501 6.99199 107.029 6.59199 107.669 6.28799C108.309 5.98399 109.077 5.83199 109.973 5.83199C110.773 5.83199 111.469 5.96799 112.061 6.23999C112.669 6.51199 113.165 6.88799 113.549 7.36799C113.949 7.84799 114.245 8.41599 114.437 9.07199C114.629 9.72799 114.725 10.448 114.725 11.232H106.397ZM109.877 6.62399C109.317 6.62399 108.829 6.73599 108.413 6.95999C108.013 7.18399 107.669 7.47199 107.381 7.82399C107.093 8.17599 106.869 8.57599 106.709 9.02399C106.549 9.47199 106.445 9.91999 106.397 10.368H113.237C113.221 9.90399 113.133 9.44799 112.973 8.99999C112.829 8.55199 112.621 8.15199 112.349 7.79999C112.077 7.44799 111.733 7.16799 111.317 6.95999C110.901 6.73599 110.421 6.62399 109.877 6.62399Z" fill="white" style="fill:white;fill-opacity:1;"/>
</svg>
