<svg width="18" height="18" viewBox="0 0 18 18" fill="none" xmlns="http://www.w3.org/2000/svg">
<path d="M9 4.5C4.725 4.5 1.5 6.1125 1.5 8.25C1.5 10.0875 3.8925 11.535 7.2825 11.91L6.9675 12.2175C6.8972 12.2872 6.84141 12.3702 6.80333 12.4616C6.76525 12.553 6.74565 12.651 6.74565 12.75C6.74565 12.849 6.76525 12.947 6.80333 13.0384C6.84141 13.1298 6.8972 13.2128 6.9675 13.2825C7.03722 13.3528 7.12017 13.4086 7.21157 13.4467C7.30296 13.4847 7.40099 13.5043 7.5 13.5043C7.59901 13.5043 7.69704 13.4847 7.78843 13.4467C7.87983 13.4086 7.96278 13.3528 8.0325 13.2825L9.5325 11.7825C9.60078 11.7112 9.6543 11.6271 9.69 11.535C9.76501 11.3524 9.76501 11.1476 9.69 10.965C9.6543 10.8729 9.60078 10.7888 9.5325 10.7175L8.0325 9.2175C7.89127 9.07627 7.69973 8.99693 7.5 8.99693C7.30027 8.99693 7.10873 9.07627 6.9675 9.2175C6.82627 9.35873 6.74693 9.55027 6.74693 9.75C6.74693 9.94973 6.82627 10.1413 6.9675 10.2825L7.0575 10.365C4.5 10.005 3 9 3 8.25C3 7.335 5.34 6 9 6C12.66 6 15 7.335 15 8.25C15 8.8725 13.9125 9.75 11.8425 10.2C11.7445 10.2188 11.6513 10.2569 11.5682 10.3122C11.4852 10.3674 11.4139 10.4387 11.3588 10.5218C11.3036 10.6049 11.2656 10.6982 11.2469 10.7962C11.2282 10.8942 11.2293 10.9949 11.25 11.0925C11.2705 11.1891 11.3098 11.2808 11.3658 11.3621C11.4218 11.4435 11.4933 11.513 11.5763 11.5667C11.6592 11.6203 11.7519 11.6571 11.8491 11.6748C11.9462 11.6926 12.046 11.6909 12.1425 11.67C14.88 11.07 16.5 9.795 16.5 8.25C16.5 6.1125 13.275 4.5 9 4.5Z" fill="black" style="fill:black;fill-opacity:1;"/>
</svg>
